<svg id="visual" viewBox="0 0 900 300" width="900" height="300" xmlns="http://www.w3.org/2000/svg" xmlns:xlink="http://www.w3.org/1999/xlink" version="1.1"><path d="M0 208L13.7 193C27.3 178 54.7 148 82 133.5C109.3 119 136.7 120 163.8 137.8C191 155.7 218 190.3 245.2 200.8C272.3 211.3 299.7 197.7 327 183.3C354.3 169 381.7 154 409 143.5C436.3 133 463.7 127 491 133.8C518.3 140.7 545.7 160.3 573 169.5C600.3 178.7 627.7 177.3 654.8 180.3C682 183.3 709 190.7 736.2 182.7C763.3 174.7 790.7 151.3 818 144.3C845.3 137.3 872.7 146.7 886.3 151.3L900 156L900 301L886.3 301C872.7 301 845.3 301 818 301C790.7 301 763.3 301 736.2 301C709 301 682 301 654.8 301C627.7 301 600.3 301 573 301C545.7 301 518.3 301 491 301C463.7 301 436.3 301 409 301C381.7 301 354.3 301 327 301C299.7 301 272.3 301 245.2 301C218 301 191 301 163.8 301C136.7 301 109.3 301 82 301C54.7 301 27.3 301 13.7 301L0 301Z" fill="#e633e6"></path><path d="M0 222L13.7 218C27.3 214 54.7 206 82 207.2C109.3 208.3 136.7 218.7 163.8 215.8C191 213 218 197 245.2 193C272.3 189 299.7 197 327 198C354.3 199 381.7 193 409 186C436.3 179 463.7 171 491 177.7C518.3 184.3 545.7 205.7 573 205C600.3 204.3 627.7 181.7 654.8 182.7C682 183.7 709 208.3 736.2 213.3C763.3 218.3 790.7 203.7 818 201.5C845.3 199.3 872.7 209.7 886.3 214.8L900 220L900 301L886.3 301C872.7 301 845.3 301 818 301C790.7 301 763.3 301 736.2 301C709 301 682 301 654.8 301C627.7 301 600.3 301 573 301C545.7 301 518.3 301 491 301C463.7 301 436.3 301 409 301C381.7 301 354.3 301 327 301C299.7 301 272.3 301 245.2 301C218 301 191 301 163.8 301C136.7 301 109.3 301 82 301C54.7 301 27.3 301 13.7 301L0 301Z" fill="#35a4ff"></path><path d="M0 219L13.7 217C27.3 215 54.7 211 82 206.7C109.3 202.3 136.7 197.7 163.8 201.5C191 205.3 218 217.7 245.2 224C272.3 230.3 299.7 230.7 327 233.3C354.3 236 381.7 241 409 241C436.3 241 463.7 236 491 237.5C518.3 239 545.7 247 573 243.3C600.3 239.7 627.7 224.3 654.8 219.5C682 214.7 709 220.3 736.2 224.8C763.3 229.3 790.7 232.7 818 230C845.3 227.3 872.7 218.7 886.3 214.3L900 210L900 301L886.3 301C872.7 301 845.3 301 818 301C790.7 301 763.3 301 736.2 301C709 301 682 301 654.8 301C627.7 301 600.3 301 573 301C545.7 301 518.3 301 491 301C463.7 301 436.3 301 409 301C381.7 301 354.3 301 327 301C299.7 301 272.3 301 245.2 301C218 301 191 301 163.8 301C136.7 301 109.3 301 82 301C54.7 301 27.3 301 13.7 301L0 301Z" fill="#00d0ff"></path><path d="M0 223L13.7 223.5C27.3 224 54.7 225 82 229.2C109.3 233.3 136.7 240.7 163.8 240.5C191 240.3 218 232.7 245.2 233.3C272.3 234 299.7 243 327 240.8C354.3 238.7 381.7 225.3 409 227.5C436.3 229.7 463.7 247.3 491 256.7C518.3 266 545.7 267 573 267.2C600.3 267.3 627.7 266.7 654.8 257.3C682 248 709 230 736.2 226.3C763.3 222.7 790.7 233.3 818 236.3C845.3 239.3 872.7 234.7 886.3 232.3L900 230L900 301L886.3 301C872.7 301 845.3 301 818 301C790.7 301 763.3 301 736.2 301C709 301 682 301 654.8 301C627.7 301 600.3 301 573 301C545.7 301 518.3 301 491 301C463.7 301 436.3 301 409 301C381.7 301 354.3 301 327 301C299.7 301 272.3 301 245.2 301C218 301 191 301 163.8 301C136.7 301 109.3 301 82 301C54.7 301 27.3 301 13.7 301L0 301Z" fill="#00ece5"></path><path d="M0 269L13.7 271.5C27.3 274 54.7 279 82 282C109.3 285 136.7 286 163.8 280C191 274 218 261 245.2 256.3C272.3 251.7 299.7 255.3 327 257C354.3 258.7 381.7 258.3 409 256.5C436.3 254.7 463.7 251.3 491 252.5C518.3 253.7 545.7 259.3 573 264.2C600.3 269 627.7 273 654.8 273.3C682 273.7 709 270.3 736.2 266.8C763.3 263.3 790.7 259.7 818 258.5C845.3 257.3 872.7 258.7 886.3 259.3L900 260L900 301L886.3 301C872.7 301 845.3 301 818 301C790.7 301 763.3 301 736.2 301C709 301 682 301 654.8 301C627.7 301 600.3 301 573 301C545.7 301 518.3 301 491 301C463.7 301 436.3 301 409 301C381.7 301 354.3 301 327 301C299.7 301 272.3 301 245.2 301C218 301 191 301 163.8 301C136.7 301 109.3 301 82 301C54.7 301 27.3 301 13.7 301L0 301Z" fill="#8affb1"></path></svg>